<?xml version="1.0" standalone="no"?><!DOCTYPE svg PUBLIC "-//W3C//DTD SVG 1.1//EN" "http://www.w3.org/Graphics/SVG/1.1/DTD/svg11.dtd"><svg class="icon" width="16px" height="16.00px" viewBox="0 0 1024 1024" version="1.1" xmlns="http://www.w3.org/2000/svg"><path fill="#FF9933" d="M473.941333 0s281.6 132.693333 312.405334 594.986667c0 0 105.002667-104.746667 110.122666-155.733334 0 0 125.482667 296.106667-10.24 431.573334S645.525333 1024 645.525333 1024s84.501333-117.546667 28.16-181.333333-174.122667-114.986667-128-252.8c0 0-217.6 112.426667-230.4 201.813333a233.92 233.92 0 0 0 102.4 232.32c2.56-2.56-314.986667-68.906667-340.586666-326.826667-25.6-255.36 163.882667-240 176.682666-423.893333a797.12 797.12 0 0 1 30.741334 209.28s143.402667-140.373333 163.882666-199.04c23.04-58.88 58.901333-240.213333 25.6-283.52z m0 0"  /></svg>