<?xml version="1.0" standalone="no"?><!DOCTYPE svg PUBLIC "-//W3C//DTD SVG 1.1//EN" "http://www.w3.org/Graphics/SVG/1.1/DTD/svg11.dtd"><svg t="1607776839582" class="icon" viewBox="0 0 1079 1024" version="1.1" xmlns="http://www.w3.org/2000/svg" p-id="4616" xmlns:xlink="http://www.w3.org/1999/xlink" width="16.859375" height="16"><defs><style type="text/css"></style></defs><path d="M470.107729 0.005399A472.340782 472.340782 0 1 1 0.001117 472.346181 471.354024 471.354024 0 0 1 470.107729 0.005399z m154.343914 467.127719c-46.172847-30.719838-148.386127-99.234386-198.654953-132.933117-17.500999-11.729393-28.671849-7.074872-28.671849 12.846477v270.520756c0 20.479892 13.40502 24.203509 34.071093 10.426127 51.944453-34.815816 149.503212-100.16529 193.62807-129.768043a16.570094 16.570094 0 0 0-0.372361-31.0922z" fill="#FF805C" p-id="4617"></path><path d="M651.634045 744.728745a37.347876 37.347876 0 0 1 37.236167 37.236168v204.79892a37.236167 37.236167 0 0 1-74.472334 0V781.964913a37.347876 37.347876 0 0 1 37.236167-37.236168z m204.79892-148.944669a37.347876 37.347876 0 0 1 37.236167 37.236167v353.74359a37.236167 37.236167 0 0 1-74.472334 0V633.020243a37.347876 37.347876 0 0 1 37.236167-37.236167z m186.180836 148.944669a37.347876 37.347876 0 0 1 37.236168 37.236168v204.79892a37.236167 37.236167 0 0 1-74.472335 0V781.964913a37.347876 37.347876 0 0 1 37.236167-37.236168z" fill="#FF9F83" p-id="4618"></path></svg>