<?xml version="1.0" standalone="no"?><!DOCTYPE svg PUBLIC "-//W3C//DTD SVG 1.1//EN" "http://www.w3.org/Graphics/SVG/1.1/DTD/svg11.dtd"><svg class="icon" width="16px" height="16.00px" viewBox="0 0 1024 1024" version="1.1" xmlns="http://www.w3.org/2000/svg"><path fill="#bfbfbf" d="M791.272727 309.713455H240.686545c-79.313455 0-143.592727 64-143.592727 142.964363v405.085091c0 78.964364 64.279273 142.964364 143.592727 142.964364H791.272727c79.313455 0 143.616-64 143.616-142.964364V452.654545c0-78.964364-64.302545-142.964364-143.616-142.964363z m-311.202909 577.396363c0 16.686545-16.058182 30.208-35.909818 30.208-19.828364 0-35.909818-13.544727-35.909818-30.231273V423.330909c0-16.686545 16.058182-30.231273 35.909818-30.231273s35.909818 13.544727 35.909818 30.254546v463.732363z m143.639273 0c0 16.686545-16.058182 30.208-35.909818 30.208s-35.909818-13.544727-35.909818-30.231273V423.330909c0-16.686545 16.058182-30.231273 35.909818-30.231273 19.828364 0 35.909818 13.544727 35.909818 30.254546v463.732363z m277.76-711.912727c-37.236364-64.744727-93.952-120.994909-164.072727-162.676364-32.302545-19.2-74.891636-16.011636-103.633455 7.68l-106.426182 87.877818c-5.678545 4.654545-18.059636 3.84-32.977454-8.448L398.103273 20.130909C369.431273-3.490909 326.888727-6.702545 294.679273 12.497455c-70.167273 41.658182-126.952727 97.931636-164.189091 162.676363a69.236364 69.236364 0 0 0 0.162909 70.050909c14.615273 25.088 43.287273 40.657455 74.845091 40.657455h620.962909c31.557818 0 60.253091-15.569455 74.845091-40.634182 12.753455-21.620364 12.8-48.407273 0.162909-70.050909z"  /></svg>