<?xml version="1.0" standalone="no"?><!DOCTYPE svg PUBLIC "-//W3C//DTD SVG 1.1//EN" "http://www.w3.org/Graphics/SVG/1.1/DTD/svg11.dtd"><svg t="1607776892317" class="icon" viewBox="0 0 1024 1024" version="1.1" xmlns="http://www.w3.org/2000/svg" p-id="6667" xmlns:xlink="http://www.w3.org/1999/xlink" width="16" height="16"><defs><style type="text/css"></style></defs><path d="M489.8961 110.666859a324.190531 324.190531 0 0 1 324.190531 324.190531v427.342063H165.705569v-427.342063a324.190531 324.190531 0 0 1 324.190531-324.190531z" fill="#FFA123" p-id="6668"></path><path d="M489.8961 110.666859a324.190531 324.190531 0 0 1 324.190531 324.190531v427.342063H165.705569v-427.342063a324.190531 324.190531 0 0 1 324.190531-324.190531z" fill="#FFA123" p-id="6669"></path><path d="M77.28997 744.311987m58.943733 0l707.324795 0q58.943733 0 58.943733 58.943733l0 0q0 58.943733-58.943733 58.943733l-707.324795 0q-58.943733 0-58.943733-58.943733l0 0q0-58.943733 58.943733-58.943733Z" fill="#FFA123" p-id="6670"></path><path d="M489.8961 0a73.679666 73.679666 0 0 1 73.679666 73.679666v73.679666H416.216434V73.679666a73.679666 73.679666 0 0 1 73.679666-73.679666z" fill="#FFA123" p-id="6671"></path><path d="M489.8961 832.432868m-191.567132 0a191.567132 191.567132 0 1 0 383.134264 0 191.567132 191.567132 0 1 0-383.134264 0Z" fill="#FFB756" p-id="6672"></path><path d="M381.292272 287.203339m-73.679666 0a73.679666 73.679666 0 1 0 147.359332 0 73.679666 73.679666 0 1 0-147.359332 0Z" fill="#FFFFFF" p-id="6673"></path><path d="M578.3117 913.62786a88.415599 88.415599 0 0 1-176.831199 0" fill="#FFA123" p-id="6674"></path></svg>