<?xml version="1.0" standalone="no"?><!DOCTYPE svg PUBLIC "-//W3C//DTD SVG 1.1//EN" "http://www.w3.org/Graphics/SVG/1.1/DTD/svg11.dtd"><svg t="1607260476286" class="icon" viewBox="0 0 1024 1024" version="1.1" xmlns="http://www.w3.org/2000/svg" p-id="5119" xmlns:xlink="http://www.w3.org/1999/xlink" width="16" height="16"><defs><style type="text/css"></style></defs><path d="M512 1024A512 512 0 1 0 0 512a512 512 0 0 0 512 512z m0-75.861A436.139 436.139 0 1 1 948.139 512 436.139 436.139 0 0 1 512 948.139z" p-id="5120" fill="#ffffff"></path><path d="M348.075 694.556a35.868 35.868 0 1 0 51.854 49.608L573.07 563.399a44.857 44.857 0 0 0 12.43-31.033V334.08a35.868 35.868 0 0 0-71.765 0v187.534l-165.632 173z" p-id="5121" fill="#ffffff"></path></svg>