<?xml version="1.0" standalone="no"?><!DOCTYPE svg PUBLIC "-//W3C//DTD SVG 1.1//EN" "http://www.w3.org/Graphics/SVG/1.1/DTD/svg11.dtd"><svg class="icon" width="16px" height="16.00px" viewBox="0 0 1024 1024" version="1.1" xmlns="http://www.w3.org/2000/svg"><path d="M378 320.34h381.93c52.73 0 95.47 49 95.47 109.55v328.64c0 60.5-42.74 109.55-95.47 109.55H378c-52.73 0-95.47-49-95.47-109.55V429.89c0.04-60.5 42.78-109.55 95.47-109.55z" fill="#39ccc5" /><path d="M937.64 286.66L822.48 402.25A23.09 23.09 0 0 1 783 386v-51.48s-185.62-20.67-294 134.24c0 0 34.1-295.26 294-295.26v-51.41a23.09 23.09 0 0 1 39.46-16.29l115.19 115.68a46.19 46.19 0 0 1-0.01 65.18z" fill="#8a8a8a" /><path d="M786 903.43H254.28a118.3 118.3 0 0 1-118.17-118.17V241.35a118.3 118.3 0 0 1 118.17-118.17h284.14a32 32 0 1 1 0 64H254.28a54.23 54.23 0 0 0-54.17 54.17v543.91a54.23 54.23 0 0 0 54.17 54.17H786a54.23 54.23 0 0 0 54.17-54.17V498.39a32 32 0 0 1 64 0v286.87A118.3 118.3 0 0 1 786 903.43z" fill="#8a8a8a" /></svg>