<?xml version="1.0" standalone="no"?><!DOCTYPE svg PUBLIC "-//W3C//DTD SVG 1.1//EN" "http://www.w3.org/Graphics/SVG/1.1/DTD/svg11.dtd"><svg t="1609586482260" class="icon" viewBox="0 0 1024 1024" version="1.1" xmlns="http://www.w3.org/2000/svg" p-id="28732" xmlns:xlink="http://www.w3.org/1999/xlink" width="16" height="16"><defs><style type="text/css"></style></defs><path d="M492.416 86.656h131.84c-3.84 9.6-7.296 17.792-10.752 25.984-24.704 57.344-49.28 114.176-73.088 171.392-4.352 10.496-9.6 14.08-20.352 14.08-34.176-0.896-68.736-0.384-105.6-0.384 26.368-71.424 52.352-141.44 77.952-211.072z m308.736-0.384c-6.016 15.488-11.136 29.568-16.384 43.136-19.456 51.456-39.808 102.4-58.88 154.24-4.224 11.776-9.856 14.976-21.12 14.976-35.456-0.896-70.528-0.512-108.16-0.512 10.368-27.648 19.456-53.632 28.928-79.104 14.72-39.936 29.056-79.616 44.16-119.552 2.176-5.504 8.704-12.8 12.928-12.8 39.04-0.896 77.44-0.384 118.528-0.384z m-364.16 0c-1.28 4.48-1.664 8.192-3.072 11.392-25.856 63.104-51.456 125.952-77.824 188.672-2.176 4.992-9.472 10.88-14.208 10.88-35.072 0.896-70.144 0.512-106.88 0.512 1.664-5.888 3.072-10.88 4.736-15.488q33.792-90.624 67.072-181.888c3.84-10.496 8.192-14.976 19.456-14.976 36.352 1.28 73.088 0.896 110.72 0.896zM85.376 298.112c1.664-38.144 0.384-75.008 6.4-109.952 9.984-57.856 56.704-97.408 114.176-101.504 16.512-1.28 32.896 0 51.584 0-2.688 6.912-4.352 12.288-6.528 17.792-24.704 59.136-49.28 118.656-73.088 178.304-4.736 12.288-10.88 15.872-22.912 15.36-21.632-0.896-43.264 0-69.632 0zM857.856 95.744c37.632 16 61.44 43.264 73.088 81.024s6.528 79.616 6.912 120.448H783.488c25.088-67.712 49.28-134.144 74.368-201.472z m80 286.08a201.472 201.472 0 0 0-1.664-20.864H87.936c-0.384 4.992-0.896 8.192-0.896 10.88 0 143.744-0.896 286.976 0.512 430.592 0.384 81.024 54.4 135.168 131.456 136.064 59.264 0.384 118.016 0 177.28 0 136.704 0 273.024 0.384 409.728 0 74.752 0 132.352-56.448 132.352-129.152q-0.768-214.272-0.512-427.52zM632.96 662.912c-53.632 28.672-103.808 63.616-156.16 95.488-40.704 24.96-81.792 0.384-82.176-49.152q-0.768-99.712 0-199.168c0-32.256 23.296-58.624 56.704-59.52 4.224 1.792 13.824 4.48 22.016 9.472 53.632 32.768 106.368 66.432 160.512 98.688 42.752 25.472 44.032 80-0.896 104.192z" fill="#FFC565" p-id="28733"></path></svg>