<?xml version="1.0" standalone="no"?><!DOCTYPE svg PUBLIC "-//W3C//DTD SVG 1.1//EN" "http://www.w3.org/Graphics/SVG/1.1/DTD/svg11.dtd"><svg t="1609585229490" class="icon" viewBox="0 0 1024 1024" version="1.1" xmlns="http://www.w3.org/2000/svg" p-id="21715" xmlns:xlink="http://www.w3.org/1999/xlink" width="16" height="16"><defs><style type="text/css"></style></defs><path d="M719.725714 295.497143c-73.142857 0-137.508571 20.48-178.468571 49.737143V155.062857c0-73.142857-96.548571-131.657143-219.428572-131.657143s-222.354286 58.514286-222.354285 131.657143v567.588572C102.4 792.868571 198.948571 848.457143 321.828571 848.457143V874.788571c2.925714 70.217143 99.474286 125.805714 222.354286 125.805715 122.88 0 219.428571-55.588571 222.354286-128.731429v-35.108571c99.474286-11.702857 169.691429-61.44 169.691428-125.805715v-283.794285c0-73.142857-93.622857-131.657143-216.502857-131.657143z m0 46.811428c102.4 0 175.542857 43.885714 175.542857 84.845715 0 38.034286-73.142857 84.845714-175.542857 84.845714-99.474286 0-169.691429-40.96-175.542857-76.068571v-5.851429c0-43.885714 70.217143-87.771429 175.542857-87.771429zM321.828571 70.217143c102.4 0 175.542857 43.885714 175.542858 84.845714 0 38.034286-73.142857 84.845714-175.542858 84.845714-99.474286 0-166.765714-40.96-175.542857-76.068571v-5.851429c0-40.96 70.217143-87.771429 175.542857-87.771428z m0 356.937143c-99.474286 0-169.691429-40.96-175.542857-78.994286v-8.777143c0-2.925714 0-5.851429 2.925715-8.777143 40.96 29.257143 102.4 46.811429 172.617142 46.811429 70.217143 0 134.582857-17.554286 172.617143-46.811429 0 2.925714 2.925714 8.777143 2.925715 11.702857 0 40.96-73.142857 84.845714-175.542858 84.845715z m175.542858 8.777143c0 38.034286-73.142857 84.845714-175.542858 84.845714-99.474286 0-172.617143-40.96-175.542857-78.994286v-5.851428c0-2.925714 0-5.851429 2.925715-8.777143 40.96 29.257143 102.4 46.811429 172.617142 46.811428 70.217143 0 134.582857-17.554286 172.617143-46.811428 2.925714 2.925714 2.925714 5.851429 2.925715 8.777143z m-175.542858-102.4c-99.474286 0-169.691429-40.96-175.542857-78.994286v-8.777143-8.777143c40.96 29.257143 102.4 46.811429 172.617143 46.811429 70.217143 0 134.582857-17.554286 172.617143-46.811429 5.851429 2.925714 5.851429 8.777143 5.851429 11.702857 0 40.96-73.142857 84.845714-175.542858 84.845715z m0 438.857142v29.257143c-102.4 0-175.542857-43.885714-175.542857-84.845714 0-2.925714 0-8.777143 2.925715-11.702857 40.96 29.257143 102.4 46.811429 172.617142 46.811428v20.48z m2.925715-111.177142c-2.925714 5.851429-2.925714 11.702857-2.925715 20.48V708.022857c-102.4 0-175.542857-43.885714-175.542857-81.92v-2.925714c0-2.925714 0-5.851429 2.925715-11.702857 38.034286 32.182857 99.474286 49.737143 175.542857 49.737143-2.925714 0-2.925714 0 0 0zM321.828571 614.4c-102.4 0-172.617143-43.885714-175.542857-81.92v-2.925714-11.702857c40.96 29.257143 102.4 46.811429 172.617143 46.811428 70.217143 0 134.582857-17.554286 172.617143-46.811428 0 2.925714 2.925714 8.777143 2.925714 11.702857 0 8.777143-2.925714 17.554286-8.777143 23.405714-58.514286 8.777143-105.325714 29.257143-134.582857 58.514286-8.777143 2.925714-20.48 2.925714-29.257143 2.925714z m222.354286 339.382857c-102.4 0-175.542857-43.885714-175.542857-81.92 0-2.925714 0-8.777143 2.925714-11.702857 40.96 29.257143 102.4 46.811429 172.617143 46.811429 70.217143 0 134.582857-17.554286 172.617143-46.811429 0 2.925714 2.925714 8.777143 2.925714 11.702857 0 35.108571-73.142857 81.92-175.542857 81.92z m0-96.548571c-102.4 0-172.617143-40.96-175.542857-81.92v-5.851429c0-2.925714 0-5.851429 2.925714-8.777143 40.96 29.257143 102.4 46.811429 172.617143 46.811429 70.217143 0 134.582857-17.554286 172.617143-46.811429 0 2.925714 2.925714 8.777143 2.925714 11.702857 0 40.96-73.142857 84.845714-175.542857 84.845715z m0-93.622857c-99.474286 0-169.691429-40.96-175.542857-78.994286v-5.851429c0-38.034286 73.142857-84.845714 175.542857-84.845714s175.542857 43.885714 175.542857 84.845714-73.142857 84.845714-175.542857 84.845715z m178.468572-160.914286c-38.034286-29.257143-96.548571-49.737143-163.84-52.662857-8.777143-8.777143-11.702857-17.554286-14.628572-26.331429v-8.777143c0-2.925714 0-5.851429 2.925714-8.777143 40.96 29.257143 102.4 46.811429 172.617143 46.811429 70.217143 0 134.582857-17.554286 172.617143-46.811429 0 2.925714 2.925714 8.777143 2.925714 11.702858 0 40.96-70.217143 84.845714-172.617142 84.845714z m35.108571 46.811428c55.588571-5.851429 102.4-23.405714 134.582857-46.811428 0 2.925714 2.925714 8.777143 2.925714 11.702857 0 32.182857-52.662857 70.217143-128.731428 78.994286v-14.628572c0-8.777143-2.925714-20.48-8.777143-29.257143z m8.777143 137.508572v-46.811429c52.662857-5.851429 96.548571-23.405714 125.805714-43.885714 0 2.925714 2.925714 8.777143 2.925714 11.702857 0 32.182857-52.662857 70.217143-128.731428 78.994286z" fill="#FFDB00" p-id="21716"></path><path d="M895.268571 520.777143c0-2.925714 0-8.777143-2.925714-11.702857-40.96 29.257143-102.4 46.811429-172.617143 46.811428-70.217143 0-134.582857-17.554286-172.617143-46.811428 0 2.925714 0 5.851429-2.925714 8.777143v8.777142c0 8.777143 5.851429 17.554286 14.628572 26.331429 67.291429 2.925714 128.731429 23.405714 163.84 52.662857 102.4-2.925714 172.617143-46.811429 172.617142-84.845714zM766.537143 740.205714v46.811429c78.994286-11.702857 128.731429-46.811429 128.731428-78.994286 0-2.925714 0-8.777143-2.925714-11.702857-32.182857 23.405714-76.068571 38.034286-125.805714 43.885714zM766.537143 693.394286c78.994286-11.702857 128.731429-46.811429 128.731428-78.994286 0-2.925714 0-8.777143-2.925714-11.702857-32.182857 23.405714-78.994286 40.96-134.582857 46.811428 5.851429 11.702857 5.851429 20.48 5.851429 32.182858v11.702857zM544.182857 433.005714c5.851429 38.034286 76.068571 76.068571 175.542857 76.068572 102.4 0 175.542857-43.885714 175.542857-84.845715 0-38.034286-73.142857-84.845714-175.542857-84.845714s-175.542857 43.885714-175.542857 84.845714v8.777143z m119.954286 17.554286c0-2.925714 2.925714-5.851429 5.851428-5.851429h38.034286v-29.257142h-38.034286c-2.925714 0-2.925714 0-2.925714-2.925715l-2.925714-2.925714v-5.851429c0-2.925714 2.925714-5.851429 5.851428-5.851428h11.702858l-17.554286-29.257143c0-2.925714 0-5.851429 2.925714-5.851429l5.851429-2.925714c2.925714-2.925714 5.851429 0 5.851428 0l20.48 38.034286H731.428571l20.48-38.034286c0-2.925714 5.851429-2.925714 5.851429 0l5.851429 2.925714c2.925714 2.925714 2.925714 5.851429 2.925714 5.851429l-17.554286 29.257143h11.702857c2.925714 0 5.851429 2.925714 5.851429 5.851428v5.851429c0 2.925714-2.925714 5.851429-5.851429 5.851429h-38.034285v29.257142H760.685714c2.925714 0 5.851429 2.925714 5.851429 5.851429v5.851429c0 2.925714-2.925714 5.851429-5.851429 5.851428h-38.034285v29.257143c0 2.925714-2.925714 5.851429-5.851429 5.851429h-5.851429c-2.925714 0-5.851429-2.925714-5.851428-5.851429v-29.257143h-38.034286c-2.925714 0-2.925714 0-2.925714-2.925714l-2.925714-2.925714v-5.851429z" fill="#D3A300" p-id="21717"></path><path d="M669.988571 462.262857h38.034286v29.257143c0 2.925714 2.925714 5.851429 5.851429 5.851429h5.851428c2.925714 0 5.851429-2.925714 5.851429-5.851429v-29.257143h38.034286c2.925714 0 5.851429-2.925714 5.851428-5.851428v-5.851429c0-2.925714-2.925714-5.851429-5.851428-5.851429h-38.034286v-29.257142h38.034286c2.925714 0 5.851429-2.925714 5.851428-5.851429v-5.851429c0-2.925714-2.925714-5.851429-5.851428-5.851428h-11.702858l17.554286-29.257143c0-2.925714 0-5.851429-2.925714-5.851429l-5.851429-2.925714c-2.925714-2.925714-5.851429 0-5.851428 0l-20.48 38.034286H702.171429l-20.48-38.034286c0-2.925714-5.851429-2.925714-5.851429 0l-5.851429 2.925714c-2.925714 2.925714-2.925714 5.851429-2.925714 5.851429l17.554286 29.257143H672.914286c-2.925714 0-5.851429 2.925714-5.851429 5.851428v5.851429c0 2.925714 0 2.925714 2.925714 2.925714l2.925715 2.925715h38.034285v29.257142H672.914286c-2.925714 0-5.851429 2.925714-5.851429 5.851429v5.851429c0 2.925714 0 2.925714 2.925714 2.925714-2.925714 2.925714 0 2.925714 0 2.925714z" fill="#FFDB00" p-id="21718"></path><path d="M544.182857 810.422857c-70.217143 0-134.582857-17.554286-172.617143-46.811428 0 2.925714-2.925714 5.851429-2.925714 8.777142v5.851429c2.925714 38.034286 73.142857 81.92 175.542857 81.92s175.542857-43.885714 175.542857-84.845714c0-2.925714 0-8.777143-2.925714-11.702857-40.96 29.257143-102.4 46.811429-172.617143 46.811428z" fill="#D3A300" p-id="21719"></path><path d="M544.182857 904.045714c-70.217143 0-134.582857-17.554286-172.617143-46.811428 0 2.925714-2.925714 8.777143-2.925714 11.702857 0 38.034286 73.142857 81.92 175.542857 81.92s175.542857-43.885714 175.542857-84.845714c0-2.925714 0-8.777143-2.925714-11.702858-40.96 32.182857-102.4 49.737143-172.617143 49.737143zM544.182857 596.845714c-102.4 0-175.542857 43.885714-175.542857 84.845715v5.851428c5.851429 38.034286 76.068571 78.994286 175.542857 78.994286 102.4 0 175.542857-43.885714 175.542857-84.845714s-73.142857-84.845714-175.542857-84.845715z m46.811429 67.291429c0 2.925714-2.925714 5.851429-5.851429 5.851428h-38.034286v29.257143H585.142857c2.925714 0 5.851429 2.925714 5.851429 5.851429v5.851428c0 2.925714-2.925714 5.851429-5.851429 5.851429h-38.034286v29.257143c0 2.925714-2.925714 5.851429-5.851428 5.851428h-5.851429c-2.925714 0-5.851429-2.925714-5.851428-5.851428v-29.257143h-38.034286c-2.925714 0-2.925714 0-2.925714-2.925714l-2.925715-2.925715v-5.851428c0-2.925714 2.925714-5.851429 5.851429-5.851429h38.034286v-29.257143h-38.034286c-2.925714 0-2.925714 0-2.925714-2.925714l-2.925715-2.925714v-5.851429c0-2.925714 2.925714-5.851429 5.851429-5.851428h11.702857l-17.554286-29.257143c0-2.925714 0-5.851429 2.925715-5.851429l5.851428-2.925714c2.925714-2.925714 5.851429 0 5.851429 0l20.48 38.034286h32.182857l20.48-38.034286c0-2.925714 5.851429-2.925714 5.851429 0l5.851428 2.925714c2.925714 2.925714 2.925714 5.851429 2.925714 5.851429l-17.554285 29.257143h14.628571c2.925714 0 5.851429 2.925714 5.851429 5.851428v5.851429z" fill="#D3A300" p-id="21720"></path><path d="M585.142857 652.434286h-11.702857l17.554286-29.257143c0-2.925714 0-5.851429-2.925715-5.851429l-5.851428-2.925714c-2.925714-2.925714-5.851429 0-5.851429 0l-20.48 38.034286h-32.182857l-20.48-38.034286c0-2.925714-5.851429-2.925714-5.851428 0l-5.851429 2.925714c-2.925714 2.925714-2.925714 5.851429-2.925714 5.851429l17.554285 29.257143h-11.702857c-2.925714 0-5.851429 2.925714-5.851428 5.851428v5.851429c0 2.925714 0 2.925714 2.925714 2.925714l2.925714 2.925714h38.034286v29.257143h-38.034286c-2.925714 0-5.851429 2.925714-5.851428 5.851429v5.851428c0 2.925714 0 2.925714 2.925714 2.925715l2.925714 2.925714h38.034286v29.257143c0 2.925714 2.925714 5.851429 5.851429 5.851428h5.851428c2.925714 0 5.851429-2.925714 5.851429-5.851428v-29.257143H585.142857c2.925714 0 5.851429-2.925714 5.851429-5.851429v-5.851428c0-2.925714-2.925714-5.851429-5.851429-5.851429h-38.034286v-29.257143H585.142857c2.925714 0 5.851429-2.925714 5.851429-5.851428v-5.851429c0-2.925714-2.925714-5.851429-5.851429-5.851428z" fill="#FFDB00" p-id="21721"></path><path d="M494.445714 236.982857c-40.96 29.257143-102.4 46.811429-172.617143 46.811429-73.142857 2.925714-134.582857-17.554286-175.542857-46.811429v17.554286c5.851429 38.034286 76.068571 78.994286 175.542857 78.994286 102.4 0 175.542857-43.885714 175.542858-84.845715 0-2.925714 0-8.777143-2.925715-11.702857zM497.371429 529.554286c0-2.925714 0-8.777143-2.925715-11.702857-40.96 29.257143-102.4 46.811429-172.617143 46.811428-70.217143 0-134.582857-17.554286-172.617142-46.811428-2.925714 2.925714-2.925714 8.777143-2.925715 11.702857v2.925714c2.925714 38.034286 73.142857 81.92 175.542857 81.92 11.702857 0 20.48 0 32.182858-2.925714 29.257143-29.257143 76.068571-49.737143 134.582857-58.514286 5.851429-5.851429 8.777143-14.628571 8.777143-23.405714zM146.285714 424.228571v14.628572c2.925714 38.034286 73.142857 78.994286 175.542857 78.994286s175.542857-43.885714 175.542858-84.845715c0-2.925714 0-8.777143-2.925715-11.702857-40.96 29.257143-102.4 46.811429-172.617143 46.811429-73.142857 5.851429-134.582857-14.628571-175.542857-43.885715z" fill="#D3A300" p-id="21722"></path><path d="M494.445714 330.605714c-40.96 29.257143-102.4 46.811429-172.617143 46.811429-70.217143 0-134.582857-17.554286-172.617142-46.811429 0 2.925714 0 5.851429-2.925715 8.777143v8.777143c5.851429 38.034286 76.068571 78.994286 175.542857 78.994286 102.4 0 175.542857-43.885714 175.542858-84.845715 0-2.925714 0-5.851429-2.925715-11.702857zM146.285714 160.914286c5.851429 38.034286 76.068571 76.068571 175.542857 76.068571 102.4 0 175.542857-43.885714 175.542858-84.845714 0-38.034286-73.142857-84.845714-175.542858-84.845714-105.325714 2.925714-175.542857 49.737143-175.542857 87.771428v5.851429z m119.954286 23.405714c0-2.925714 2.925714-5.851429 5.851429-5.851429h38.034285v-29.257142H272.091429c-2.925714 0-2.925714 0-2.925715-2.925715l-2.925714-2.925714v-2.925714c0-2.925714 2.925714-5.851429 5.851429-5.851429h11.702857l-17.554286-29.257143c0-2.925714 0-5.851429 2.925714-5.851428l5.851429-2.925715c2.925714-2.925714 5.851429 0 5.851428 0l20.48 38.034286h32.182858l20.48-38.034286c0-2.925714 5.851429-2.925714 5.851428 0l5.851429 2.925715c2.925714 2.925714 2.925714 5.851429 2.925714 5.851428l-17.554286 29.257143h11.702857c2.925714 0 5.851429 2.925714 5.851429 5.851429V146.285714c0 2.925714-2.925714 5.851429-5.851429 5.851429h-38.034285v29.257143h38.034285c2.925714 0 5.851429 2.925714 5.851429 5.851428v5.851429c0 2.925714-2.925714 5.851429-5.851429 5.851428h-38.034285v29.257143c0 2.925714-2.925714 5.851429-5.851429 5.851429h-5.851428c-2.925714 0-5.851429-2.925714-5.851429-5.851429v-29.257143H272.091429c-2.925714 0-2.925714 0-2.925715-2.925714l-2.925714-2.925714v-8.777143z" fill="#D3A300" p-id="21723"></path><path d="M272.091429 196.022857h38.034285v29.257143c0 2.925714 2.925714 5.851429 5.851429 5.851429h5.851428c2.925714 0 5.851429-2.925714 5.851429-5.851429v-29.257143h38.034286c2.925714 0 5.851429-2.925714 5.851428-5.851428v-5.851429c0-2.925714-2.925714-5.851429-5.851428-5.851429h-38.034286v-29.257142h38.034286c2.925714 0 5.851429-2.925714 5.851428-5.851429v-2.925714c0-2.925714-2.925714-5.851429-5.851428-5.851429h-11.702857l17.554285-29.257143c0-2.925714 0-5.851429-2.925714-5.851428l-5.851429-2.925715c-2.925714-2.925714-5.851429 0-5.851428 0l-20.48 38.034286h-32.182857l-20.48-38.034286c0-2.925714-5.851429-2.925714-5.851429 0l-8.777143 2.925715c-2.925714 2.925714-2.925714 5.851429-2.925714 5.851428l17.554286 29.257143h-11.702857c-2.925714 0-5.851429 2.925714-5.851429 5.851429V146.285714c0 2.925714 0 2.925714 2.925714 2.925715l2.925715 2.925714h38.034285v29.257143H272.091429c-2.925714 0-5.851429 2.925714-5.851429 5.851428v5.851429c0 2.925714 0 2.925714 2.925714 2.925714h2.925715z" fill="#FFDB00" p-id="21724"></path><path d="M324.754286 661.211429z" fill="#E5DF34" p-id="21725"></path><path d="M146.285714 611.474286v14.628571c0 38.034286 73.142857 81.92 175.542857 81.92v-17.554286-8.777142c0-5.851429 0-14.628571 2.925715-20.48H321.828571c-73.142857 0-134.582857-17.554286-175.542857-49.737143zM146.285714 708.022857v11.702857c0 38.034286 73.142857 84.845714 175.542857 84.845715v-23.405715-2.925714-20.48c-73.142857-2.925714-134.582857-20.48-175.542857-49.737143z" fill="#D3A300" p-id="21726"></path></svg>