<?xml version="1.0" standalone="no"?><!DOCTYPE svg PUBLIC "-//W3C//DTD SVG 1.1//EN" "http://www.w3.org/Graphics/SVG/1.1/DTD/svg11.dtd"><svg t="1609586371909" class="icon" viewBox="0 0 1050 1024" version="1.1" xmlns="http://www.w3.org/2000/svg" p-id="25490" xmlns:xlink="http://www.w3.org/1999/xlink" width="16.40625" height="16"><defs><style type="text/css"></style></defs><path d="M643.16848 73.6l62.4 129.6c16 38.4 54.4 62.4 96 68.8l140.8 20.8c104 14.4 144 142.4 70.4 217.6L910.36848 608c-28.8 28.8-43.2 70.4-38.4 110.4l22.4 140.8c16 104-89.6 182.4-184 134.4l-124.8-64c-38.4-19.2-80-19.2-116.8 0l-128 67.2c-94.4 48-200-28.8-184-134.4l22.4-140.8c8-41.6-6.4-83.2-38.4-110.4l-102.4-100.8C-36.83152 435.2 4.76848 310.4 108.76848 292.8l140.8-20.8c41.6-6.4 76.8-32 96-68.8l62.4-129.6C463.96848-20.8 595.16848-20.8 643.16848 73.6" fill="#FED44A" p-id="25491"></path><path d="M415.96848 73.6l-62.4 129.6c-16 38.4-54.4 62.4-96 68.8l-140.8 20.8c-64 11.2-107.2 62.4-108.8 116.8 19.2-102.4 230.4-22.4 326.4-14.4 97.6 11.2 124.8-76.8 124.8-76.8s20.8-104 46.4-236.8c19.2-107.2 89.6-60.8 115.2-41.6-59.2-60.8-163.2-48-204.8 33.6" fill="#FFDE73" p-id="25492"></path><path d="M593.56848 798.4c-76.8-52.8-145.6 0-145.6 0s-75.2 67.2-163.2 150.4c-89.6 83.2-123.2-35.2-123.2-35.2 19.2 75.2 107.2 121.6 182.4 80l128-64c38.4-19.2 80-19.2 116.8 0l128 67.2c59.2 32 123.2 12.8 158.4-33.6 1.6-8 4.8-14.4 8-20.8-72 67.2-211.2-91.2-289.6-144" fill="#FEC54A" p-id="25493"></path><path d="M479.96848 88c16 4.8 27.2 19.2 22.4 38.4l-28.8 131.2c-4.8 16-19.2 27.2-38.4 22.4-16-4.8-27.2-19.2-22.4-38.4l28.8-134.4c4.8-16 22.4-24 38.4-19.2" fill="#FFF2CA" p-id="25494"></path></svg>