<?xml version="1.0" standalone="no"?><!DOCTYPE svg PUBLIC "-//W3C//DTD SVG 1.1//EN" "http://www.w3.org/Graphics/SVG/1.1/DTD/svg11.dtd"><svg class="icon" width="16px" height="16.00px" viewBox="0 0 1024 1024" version="1.1" xmlns="http://www.w3.org/2000/svg"><path d="M776.827586 324.749241v373.248a87.04 87.04 0 0 1-87.022345 87.022345L388.413793 786.273103l-176.551724 194.206897v-194.206897H87.022345A87.04 87.04 0 0 1 0 699.250759V326.002759a87.04 87.04 0 0 1 87.022345-87.022345l602.765241-1.253517A87.04 87.04 0 0 1 776.827586 324.749241z" fill="#EBBA16" /><path d="M936.977655 44.755862l-602.765241-1.235862A87.04 87.04 0 0 0 247.172414 130.542345v108.084965l442.632827-0.918069A87.04 87.04 0 0 1 776.827586 324.749241v325.579035l123.586207 135.944827v-194.206896h36.563862A87.04 87.04 0 0 0 1024 505.043862V131.795862a87.04 87.04 0 0 0-87.022345-87.04z" fill="#ED8A19" /><path d="M194.206897 519.944828m-52.965518 0a52.965517 52.965517 0 1 0 105.931035 0 52.965517 52.965517 0 1 0-105.931035 0Z" fill="#FFFFFF" /><path d="M388.413793 519.944828m-52.965517 0a52.965517 52.965517 0 1 0 105.931034 0 52.965517 52.965517 0 1 0-105.931034 0Z" fill="#FFFFFF" /><path d="M582.62069 519.944828m-52.965518 0a52.965517 52.965517 0 1 0 105.931035 0 52.965517 52.965517 0 1 0-105.931035 0Z" fill="#FFFFFF" /></svg>