<?xml version="1.0" standalone="no"?><!DOCTYPE svg PUBLIC "-//W3C//DTD SVG 1.1//EN" "http://www.w3.org/Graphics/SVG/1.1/DTD/svg11.dtd"><svg t="1609586425891" class="icon" viewBox="0 0 1024 1024" version="1.1" xmlns="http://www.w3.org/2000/svg" p-id="26917" xmlns:xlink="http://www.w3.org/1999/xlink" width="16" height="16"><defs><style type="text/css"></style></defs><path d="M864.256 729.6h-563.2c-70.144 0-128-57.344-128-128V240.128c0-70.144 57.856-128 128-128h563.2c70.656 0 128 57.856 128 128v361.472c0 70.656-57.856 128-128 128z" fill="#E1E1DF" p-id="26918"></path><path d="M920.064 749.056h-819.2v-440.32c0-70.656 57.344-128 128-128h563.2c70.656 0 128 57.344 128 128v440.32z" fill="#FF7517" p-id="26919"></path><path d="M939.008 911.872H79.872c-27.136 0-48.128-20.992-48.128-48.128v-89.6h955.392v89.6c0 27.648-20.48 48.128-48.128 48.128z" fill="#BC5A18" p-id="26920"></path><path d="M196.608 859.136H108.544c-8.192 0-15.872-6.144-15.872-15.872v-1.536c0-8.192 6.144-15.872 15.872-15.872h88.064c8.192 0 15.872 6.144 15.872 15.872v1.536c0.512 9.728-6.144 15.872-15.872 15.872z m153.6 0H262.144c-8.192 0-15.872-6.144-15.872-15.872v-1.536c0-8.192 6.144-15.872 15.872-15.872h88.064c8.192 0 15.872 6.144 15.872 15.872v1.536c0.512 9.728-6.144 15.872-15.872 15.872z m550.4 0h-88.064c-8.192 0-15.872-6.144-15.872-15.872v-1.536c0-8.192 6.144-15.872 15.872-15.872h88.064c8.192 0 15.872 6.144 15.872 15.872v1.536c0.512 9.728-7.68 15.872-15.872 15.872zM507.392 416.256H247.808c-12.8 0-24.064-11.264-24.064-24.064V389.12c0-12.8 11.264-24.064 24.064-24.064H506.88c12.8 0 24.064 11.264 24.064 24.064v3.072c0.512 14.336-10.752 24.064-23.552 24.064z m274.944 45.568h-170.496c-12.8 0-24.064-11.264-24.064-24.064v-3.072c0-12.8 11.264-24.064 24.064-24.064h170.496c12.8 0 24.064 11.264 24.064 24.064v3.072c0 14.336-11.264 24.064-24.064 24.064z m-377.344 45.568H247.808c-12.8 0-24.064-11.264-24.064-24.064v-3.072c0-12.8 11.264-24.064 24.064-24.064H404.48c12.8 0 24.064 11.264 24.064 24.064v3.072c0.512 14.336-10.752 24.064-23.552 24.064z m135.68 92.672H247.808c-12.8 0-24.064-11.264-24.064-24.064v-3.072c0-12.8 11.264-24.064 24.064-24.064h292.864c12.8 0 24.064 11.264 24.064 24.064v3.072c0 12.8-9.728 24.064-24.064 24.064z m203.776-45.056h-48.64c-12.8 0-24.064-11.264-24.064-24.064v-3.072c0-12.8 11.264-24.064 24.064-24.064h48.64c12.8 0 24.064 11.264 24.064 24.064v3.072c0 13.312-9.728 24.064-24.064 24.064z" fill="#FFFFFF" p-id="26921"></path></svg>