<?xml version="1.0" standalone="no"?><!DOCTYPE svg PUBLIC "-//W3C//DTD SVG 1.1//EN" "http://www.w3.org/Graphics/SVG/1.1/DTD/svg11.dtd"><svg t="1607776950990" class="icon" viewBox="0 0 1024 1024" version="1.1" xmlns="http://www.w3.org/2000/svg" p-id="12278" xmlns:xlink="http://www.w3.org/1999/xlink" width="16" height="16"><defs><style type="text/css"></style></defs><path d="M511.461 510.603m-508.604 0a508.604 508.604 0 1 0 1017.208 0 508.604 508.604 0 1 0-1017.208 0Z" fill="#F5D762" p-id="12279"></path><path d="M487.411 400.01L307.745 220.344c-15.399-15.4-35.933-15.4-51.333 0-15.4 15.4-15.4 35.933 0 51.333l179.666 179.666c-69.299 84.699-25.666 128.333-25.666 128.333l205.332-205.332S572.11 330.71 487.411 400.01zM436.078 605.343L641.411 400.01 795.41 502.676l-25.666 25.666c-2.567 2.566-77-25.666-77-25.666l25.666 77-25.666 25.667-74.433-28.233 23.1 79.566-25.667 25.666-77-25.666 25.667 77-25.667 25.666-102.666-153.999zM273.271 654.631c0 10.023 8.126 18.148 18.149 18.148 10.023 0 18.149-8.125 18.149-18.148s-8.126-18.149-18.149-18.149c-10.023-0.001-18.149 8.125-18.149 18.149zM345.868 709.077c0 20.047 16.251 36.298 36.298 36.298 20.046 0 36.297-16.251 36.297-36.298s-16.251-36.298-36.297-36.298c-20.047 0-36.298 16.251-36.298 36.298z" fill="#E95048" p-id="12280"></path></svg>