<?xml version="1.0" standalone="no"?><!DOCTYPE svg PUBLIC "-//W3C//DTD SVG 1.1//EN" "http://www.w3.org/Graphics/SVG/1.1/DTD/svg11.dtd"><svg t="1607766410184" class="icon" viewBox="0 0 1024 1024" version="1.1" xmlns="http://www.w3.org/2000/svg" p-id="26009" width="16" height="16" xmlns:xlink="http://www.w3.org/1999/xlink"><defs><style type="text/css"></style></defs><path d="M294.4 90.624c9.216 6.656 18.432 14.336 27.648 23.04 9.216 8.704 17.92 18.432 25.088 29.696 3.584 6.144 8.192 12.8 13.312 19.968 5.12 7.68 10.24 14.848 14.848 22.528 5.12 8.192 10.24 16.896 15.872 25.6h232.96c5.12-7.68 10.24-15.36 14.848-23.552 3.584-6.656 7.68-13.312 12.288-19.968 4.608-6.656 8.704-12.8 12.288-17.92 7.68-10.24 14.848-20.48 22.528-29.696 7.68-9.216 18.432-18.432 32.768-27.648 6.144-3.584 11.264-8.704 15.36-14.848s6.656-11.776 7.68-17.92c1.024-6.144 0.512-11.776-2.048-17.408s-7.68-9.728-15.36-12.8c-6.656-2.048-12.8-3.072-17.408-2.048-5.12 0.512-9.728 2.048-14.848 4.096s-9.728 4.096-15.36 6.144c-5.12 2.048-11.776 3.584-18.944 3.584-7.68 0-13.824-1.536-18.432-4.096-5.12-2.56-9.216-5.632-13.312-9.728-4.096-3.584-8.192-7.68-12.8-11.776-4.608-4.096-10.24-7.168-17.92-9.728C580.608 0 568.32-1.024 559.616 2.56c-9.216 3.584-17.92 9.728-27.136 17.92-7.68 7.68-13.312 12.8-17.92 15.872-2.048 1.536-4.096 2.048-5.632 2.048-4.608-2.048-8.704-5.12-12.288-7.68-3.584-2.048-7.168-4.608-10.752-7.168-3.584-2.56-6.656-5.632-9.728-9.728-6.144-6.144-14.848-9.728-27.136-11.776-11.776-2.048-23.04 0-32.768 6.144-12.8 8.192-21.504 15.36-27.136 20.992-5.12 5.632-13.312 9.728-23.552 11.776-6.144 1.536-12.8 1.024-19.456-1.024-7.168-2.048-14.336-4.608-22.016-6.656s-14.848-3.584-21.504-4.608c-6.656-0.512-12.8 0.512-17.92 4.608-10.24 8.192-13.824 17.92-10.24 29.696 3.584 11.776 10.24 20.48 19.968 27.648z m609.28 535.04c-5.632-36.864-15.36-69.632-29.696-98.304s-30.72-53.248-50.176-74.752C804.864 431.104 785.92 412.672 768 396.8c-21.504-17.92-40.96-34.816-57.344-51.2-16.384-15.872-30.208-30.72-41.472-43.008-13.312-14.336-24.576-27.136-33.792-39.424H382.464c-9.728 12.8-20.992 26.112-33.792 40.448-10.752 12.8-23.552 26.624-39.424 41.984-15.872 15.36-33.28 31.744-52.736 48.64a451.072 451.072 0 0 0-62.464 66.048c-18.944 24.576-34.816 51.712-47.616 81.408-12.8 29.696-21.504 61.44-26.624 94.72-5.12 33.792-4.096 69.12 3.072 105.472 6.144 32.768 18.432 66.048 36.864 99.328 18.944 33.28 44.032 63.488 75.776 90.624 31.744 27.136 70.656 48.64 116.224 65.536s98.304 25.088 157.696 25.088c57.856 0 109.056-7.168 154.624-22.016 45.568-14.848 84.48-34.304 117.76-58.88 32.768-24.576 59.392-53.76 79.36-87.04 19.968-33.28 33.28-68.608 39.936-105.984 7.168-44.544 8.192-85.504 2.56-122.88zM644.096 805.376c-5.12 3.584-11.264 5.12-18.432 5.12h-78.848v22.528c0 6.656-2.56 13.312-8.704 19.456-5.632 6.144-12.8 9.216-22.016 8.192-9.216 0-16.384-2.048-22.528-6.144-6.144-4.096-9.216-11.264-10.24-22.016v-22.528H407.04c-7.68 0-13.824-2.048-18.432-6.144-5.12-4.096-7.168-9.216-6.144-15.36 0-6.656 2.56-12.288 7.168-16.384 5.12-4.096 10.752-6.144 17.408-6.144h76.288v-39.424H407.04c-7.68 0-13.312-2.048-17.92-6.656-4.608-4.608-6.656-9.728-6.656-15.872s2.56-11.776 7.168-16.896c5.12-5.12 10.752-7.68 17.408-7.68h76.288l1.024-23.552c-13.312-13.312-26.112-26.112-36.864-38.4-9.728-10.24-18.944-19.968-27.136-29.184l-16.896-15.872c-3.584-4.608-7.168-10.752-10.24-18.432-3.072-7.68-1.536-15.872 4.608-24.064 6.656-7.68 14.848-9.728 24.576-6.144s17.408 7.68 23.552 12.8c3.072 3.584 8.192 9.216 15.872 16.896l23.552 23.552 30.208 30.208c12.8-11.776 24.576-23.04 34.816-32.768 9.216-8.192 17.92-16.384 27.136-24.064 9.216-7.68 15.36-13.312 18.944-16.384 6.656-6.144 14.336-9.216 22.528-9.216 8.192 0 14.848 3.584 20.48 10.24 9.728 11.264 6.144 24.576-11.264 39.424-4.608 3.584-11.264 10.24-20.48 19.456-9.216 9.216-17.92 18.432-27.136 27.648-10.24 11.264-22.016 23.04-34.816 34.816v21.504h73.728c10.752 0 18.432 2.56 23.04 7.168 5.12 5.12 7.168 10.24 7.168 16.384 0 6.656-2.048 12.8-6.656 17.408-4.608 4.608-11.776 7.168-22.528 6.144l-73.216 1.024-1.024 38.4h72.192c20.992 0 31.744 7.68 31.744 23.552 0.512 8.704-1.536 14.336-6.144 17.408z" fill="#ffffff" p-id="26010"></path></svg>