<?xml version="1.0" standalone="no"?><!DOCTYPE svg PUBLIC "-//W3C//DTD SVG 1.1//EN" "http://www.w3.org/Graphics/SVG/1.1/DTD/svg11.dtd"><svg t="1607764697574" class="icon" viewBox="0 0 1024 1024" version="1.1" xmlns="http://www.w3.org/2000/svg" p-id="13188" width="16" height="16" xmlns:xlink="http://www.w3.org/1999/xlink"><defs><style type="text/css"></style></defs><path d="M236.348952 255.122286v12.288c0 12.8 10.727619 23.552 23.552 23.552h462.848c12.8 0 23.552-10.24 23.552-23.552v-12.288a88.064 88.064 0 0 0-88.064-88.064h-70.607238V113.810286A96.182857 96.182857 0 0 0 491.373714 17.554286a96.134095 96.134095 0 0 0-96.256 96.256v52.736h-70.656c-48.664381 0.024381-88.112762 39.960381-88.112762 88.576z m182.784-40.935619a23.82019 23.82019 0 0 0 23.552-23.552v-76.8a49.176381 49.176381 0 0 1 98.328381 0v76.288c0 12.8 10.752 23.552 23.552 23.552h94.208a41.691429 41.691429 0 0 1 39.424 29.696H285.525333a40.496762 40.496762 0 0 1 38.912-29.184h94.695619z" p-id="13189" fill="#ffffff"></path><path d="M491.324952 165.546667a27.550476 27.550476 0 0 0 27.648-27.648c0-15.36-12.288-27.648-27.648-27.648a27.550476 27.550476 0 0 0-19.456 47.104c5.12 5.12 12.288 8.192 19.456 8.192zM736.719238 403.480381a23.454476 23.454476 0 0 0-20.089905-12.166095H259.900952c-12.8 0-23.552 10.752-23.552 23.552s10.727619 23.552 23.552 23.552h281.965715a319.21981 319.21981 0 0 1 151.795809-38.156191c14.652952 0 28.964571 1.29219 43.056762 3.218286zM259.900952 569.465905c-12.8 0-23.552 10.752-23.552 23.576381s10.727619 23.576381 23.552 23.576381h130.633143c5.607619-16.310857 12.288-32.134095 20.333715-47.152762H259.900952zM259.900952 747.154286c-12.8 0-23.552 10.752-23.552 23.576381s10.727619 23.576381 23.552 23.576381h121.417143a318.902857 318.902857 0 0 1-7.484952-47.152762H259.900952z" p-id="13190" fill="#ffffff"></path><path d="M220.988952 906.898286a71.850667 71.850667 0 0 1-71.655619-71.655619V207.530667a71.875048 71.875048 0 0 1 71.655619-71.68h90.087619c12.8 0 23.576381-10.752 23.576381-23.552s-10.752-23.552-23.552-23.552H220.988952a119.417905 119.417905 0 0 0-119.296 119.296v627.2a119.417905 119.417905 0 0 0 119.296 119.296h252.928a322.121143 322.121143 0 0 1-41.569523-47.616H220.988952zM881.468952 207.530667c-0.512-65.536-53.76-118.784-119.296-118.784h-90.112c-12.775619 0-23.552 10.752-23.552 23.552s10.752 23.552 23.552 23.552h90.112a71.850667 71.850667 0 0 1 71.631238 71.68v225.304381c16.774095 8.167619 32.670476 17.67619 47.640381 28.501333V207.530667z" p-id="13191" fill="#ffffff"></path><path d="M693.662476 440.929524c-154.721524 0-280.210286 125.488762-280.210286 280.210286s125.488762 280.210286 280.210286 280.210285c154.745905 0 280.210286-125.488762 280.210286-280.210285s-125.464381-280.210286-280.210286-280.210286z m0 525.385143c-135.41181 0-245.199238-109.763048-245.199238-245.174857s109.787429-245.174857 245.199238-245.174858 245.174857 109.763048 245.174857 245.174858-109.763048 245.174857-245.174857 245.174857z" p-id="13192" fill="#ffffff"></path><path d="M621.884952 848.579048l220.647619-127.439238-220.647619-127.439239z" p-id="13193" fill="#ffffff"></path></svg>