<?xml version="1.0" standalone="no"?><!DOCTYPE svg PUBLIC "-//W3C//DTD SVG 1.1//EN" "http://www.w3.org/Graphics/SVG/1.1/DTD/svg11.dtd"><svg class="icon" width="16px" height="16.00px" viewBox="0 0 1024 1024" version="1.1" xmlns="http://www.w3.org/2000/svg"><path fill="#FF9933" d="M323.47 508.985L575.471 257.61l250.746 251.375v502.748H323.469z"  /><path fill="#FF9933" d="M219.023 939.212h585.954V612.865a36.45 36.45 0 0 1 36.575-36.26 36.45 36.45 0 0 1 36.638 36.26v362.608a36.45 36.45 0 0 1-36.638 36.26H182.385a36.45 36.45 0 0 1-36.575-36.26V612.865a36.45 36.45 0 0 1 36.575-36.26 36.45 36.45 0 0 1 36.638 36.26v326.347zM512 93.84L71.843 529.66a36.89 36.89 0 0 1-51.846 0 36.01 36.01 0 0 1 0-51.28L486.046 16.92a36.89 36.89 0 0 1 51.846 0l466.11 461.46a36.072 36.072 0 0 1 0 51.406 36.952 36.952 0 0 1-51.845 0L512 93.903v-0.063z"  /></svg>