<?xml version="1.0" standalone="no"?><!DOCTYPE svg PUBLIC "-//W3C//DTD SVG 1.1//EN" "http://www.w3.org/Graphics/SVG/1.1/DTD/svg11.dtd"><svg t="1608039046048" class="icon" viewBox="0 0 1024 1024" version="1.1" xmlns="http://www.w3.org/2000/svg" p-id="2772" width="16" height="16" xmlns:xlink="http://www.w3.org/1999/xlink"><defs><style type="text/css"></style></defs><path d="M434.62656 517.56032c69.12512 0 125.37344-56.96512 125.37344-127.03232 0-70.03136-56.24832-127.0016-125.37344-127.0016S309.248 320.50176 309.248 390.528c0 70.0672 56.25344 127.03232 125.37856 127.03232z m0-186.18368c32.06656 0 58.12736 26.56256 58.12736 59.1872 0 32.59392-26.0608 59.15648-58.12736 59.15648-32.12288 0-58.1888-26.56256-58.1888-59.15648 0-32.62464 26.0608-59.1872 58.1888-59.1872z m311.3728 152.3456l-12.37504 12.09344-13.8752-16.18944 13.44-13.312-32.5632-32.96768-2.1248 2.21696-2.24768-2.24768-47.37536 48.06144 2.18624 2.24768-159.11936 161.34656-44.4416-45.06624 2.24768-2.2784-47.37536-47.93344-2.1248 2.15552-2.18624-2.28352-47.5648 48.128 2.24768 2.24768-116.87424 118.58944 47.37536 48.12288 117.00224-118.59456 44.37504 44.99968-2.24768 2.28352 47.49824 48.12288 2.18624-2.2784 2.24768 2.21696 47.31392-48.06144-2.24768-2.24768 159.12448-161.34656 116.87424 118.59456 47.4368-48.12288-116.8128-118.49728zM512 0C229.68832 0 0 229.68832 0 512s229.68832 512 512 512 512-229.68832 512-512S794.31168 0 512 0z m0 942.09536c-237.12256 0-430.12608-192.94208-430.12608-430.09536S274.87744 81.90464 512 81.90464 942.12608 274.84672 942.12608 512 749.12256 942.09536 512 942.09536z" p-id="2773" fill="#ffffff"></path></svg>