<?xml version="1.0" standalone="no"?><!DOCTYPE svg PUBLIC "-//W3C//DTD SVG 1.1//EN" "http://www.w3.org/Graphics/SVG/1.1/DTD/svg11.dtd"><svg t="1607695143966" class="icon" viewBox="0 0 1024 1024" version="1.1" xmlns="http://www.w3.org/2000/svg" p-id="7528" xmlns:xlink="http://www.w3.org/1999/xlink" width="16" height="16"><defs><style type="text/css"></style></defs><path d="M0 512C0 794.168889 227.555556 1024 512 1024 794.168889 1024 1024 794.168889 1024 512S794.168889 0 512 0C227.555556 0 0 229.831111 0 512z m0 0" fill="#FFCB2F" p-id="7529"></path><path d="M744.106667 623.502222c-6.826667 34.133333-18.204444 59.164444-31.857778 75.093334-2.275556 4.551111-9.102222 13.653333-13.653333 18.204444-4.551111 4.551111-13.653333 11.377778-15.928889 15.928889-15.928889 11.377778-38.684444 25.031111-70.542223 31.857778-43.235556 11.377778-81.92 11.377778-102.4 11.377777-22.755556 0-61.44-2.275556-102.4-11.377777-34.133333-9.102222-59.164444-20.48-72.817777-31.857778-4.551111-2.275556-11.377778-9.102222-15.928889-15.928889-4.551111-4.551111-11.377778-13.653333-13.653334-18.204444-11.377778-15.928889-22.755556-40.96-29.582222-75.093334-11.377778-45.511111-11.377778-86.471111-11.377778-109.226666s2.275556-65.991111 11.377778-109.226667c6.826667-34.133333 18.204444-56.888889 29.582222-75.093333 2.275556-2.275556 9.102222-13.653333 13.653334-18.204445 4.551111-4.551111 13.653333-11.377778 15.928889-15.928889 15.928889-11.377778 38.684444-25.031111 70.542222-31.857778 43.235556-9.102222 81.92-11.377778 102.4-11.377777 22.755556 0 61.44 2.275556 102.4 11.377777 31.857778 9.102222 54.613333 20.48 70.542222 31.857778 2.275556 2.275556 11.377778 9.102222 15.928889 15.928889 4.551111 4.551111 11.377778 13.653333 13.653333 18.204445 11.377778 18.204444 22.755556 40.96 31.857778 75.093333 9.102222 45.511111 11.377778 86.471111 9.102222 109.226667 4.551111 22.755556 4.551111 63.715556-6.826666 109.226666z m102.4-109.226666c0-131.982222-36.408889-207.075556-93.297778-257.137778-68.266667-61.44-147.911111-77.368889-243.484445-77.368889s-175.217778 15.928889-243.484444 77.368889c-59.164444 50.062222-95.573333 127.431111-95.573333 257.137778s36.408889 209.351111 93.297777 257.137777c68.266667 61.44 147.911111 77.368889 243.484445 77.368889 95.573333 0 175.217778-15.928889 243.484444-77.368889 59.164444-50.062222 95.573333-125.155556 95.573334-257.137777z m0 0" fill="#333333" p-id="7530"></path><path d="M598.471111 512c-15.928889 0-40.96-11.377778-77.368889-29.582222-40.96-22.755556-72.817778-31.857778-95.573333-34.133334-47.786667-2.275556-91.022222 27.306667-134.257778 84.195556l47.786667 31.857778c25.031111-31.857778 50.062222-50.062222 72.817778-47.786667 13.653333 0 31.857778 6.826667 52.337777 15.928889l45.511111 22.755556c27.306667 13.653333 52.337778 20.48 72.817778 22.755555h4.551111c50.062222 0 95.573333-29.582222 136.533334-86.471111l-45.511111-31.857778c-29.582222 34.133333-54.613333 52.337778-79.644445 52.337778" fill="#333333" p-id="7531"></path></svg>