<?xml version="1.0" standalone="no"?><!DOCTYPE svg PUBLIC "-//W3C//DTD SVG 1.1//EN" "http://www.w3.org/Graphics/SVG/1.1/DTD/svg11.dtd"><svg t="1607776919214" class="icon" viewBox="0 0 1024 1024" version="1.1" xmlns="http://www.w3.org/2000/svg" p-id="9465" xmlns:xlink="http://www.w3.org/1999/xlink" width="16" height="16"><defs><style type="text/css"></style></defs><path d="M598.532 544.481c-4.509 0-10.786-0.065-18.921-0.251-8.074-0.221-14.286-0.316-18.416-0.316-6.023 0-9.871-2.427-11.573-7.347-1.671-4.857-2.522-11.668-2.522-20.371 0-12.078-0.128-21.79-0.316-29.139-0.188-7.379-0.316-15.357-0.316-23.999 0-9.871-0.63-16.997-1.987-21.506-1.261-4.541-6.622-6.812-16.051-6.812-6.812 0-11.888 0.093-15.294 0.284-3.406 0.189-8.106 0.316-14.128 0.316-10.217 0-16.525 2.963-19.017 8.768-2.397 5.834-3.626 11.573-3.626 17.219v18.133c0 4.857 0.093 9.588 0.316 14.128 0.188 4.572 0.284 9.239 0.284 14.158v16.4c0 6.085-0.789 10.691-2.271 13.874-1.545 3.216-5.109 4.825-10.754 4.825-2.271 0.347-5.393 0.662-9.366 0.819-3.91 0.188-7.98 0.378-12.141 0.599-4.131 0.189-8.106 0.251-11.888 0.251h-9.083c-7.884 0-12.581 2.492-14.096 7.379-1.482 4.857 0.914 11.132 7.316 18.7 6.432 7.914 13.372 16.431 20.655 25.669 7.379 9.271 14.695 18.574 21.823 28.067 7.159 9.397 14.033 18.542 20.625 27.467 6.622 8.767 12.741 16.461 18.384 22.832 10.25 11.383 19.991 11.163 29.423-0.505 5.645-6.465 12.298-14.759 19.868-24.945 7.505-10.156 15.2-20.846 23.148-31.946 7.947-11.132 15.391-21.853 22.611-32.228 7.222-10.406 12.993-19.017 17.565-25.797 4.509-7.474 5.866-11.857 3.943-12.993-1.924-1.103-6.623-1.735-14.192-1.735z" fill="#ea9518" p-id="9466"></path><path d="M742.555 133.922h-461.047c-81.487 0-147.585 66.034-147.585 147.553v461.078c0 81.487 66.098 147.585 147.585 147.585h461.047c81.487 0 147.523-66.098 147.523-147.585v-461.078c-0.028-81.519-66.034-147.553-147.522-147.553zM790.078 669.582c-3.216 8.292-7.631 15.863-13.309 22.579-5.677 6.812-12.394 12.363-20.026 16.683-7.822 4.32-16.208 7.283-25.197 8.736v1.198h-379.685c-0.694 0-1.23 0.127-1.387 0.251-0.158 0.251-0.662 0.379-1.451 0.379-0.725 0-1.294-0.127-1.671-0.379-0.347-0.127-0.947-0.251-1.671-0.251h-3.406v-0.63c-15.799-0.694-30.653-4.32-44.371-10.691-13.844-6.465-25.764-15.011-36.013-25.797-10.092-10.658-18.164-23.179-23.999-37.307-5.834-14.129-8.767-29.17-8.767-45.001 0-15.862 2.932-30.777 8.767-44.686 5.834-13.971 13.75-26.27 23.779-36.802 9.935-10.5 21.665-19.237 35.067-25.985 13.402-6.812 27.815-10.754 43.268-11.92 2.649-24.471 9.429-47.429 20.371-68.747 10.911-21.255 24.976-39.86 42.131-55.722 17.124-15.799 36.895-28.287 59.097-37.307 22.265-9.082 46.073-13.623 71.238-13.623 26.803 0 52.096 5.109 75.875 15.262 23.716 10.121 44.34 24.157 61.903 41.846 17.629 17.723 31.472 38.378 41.627 61.967 10.217 23.557 15.263 48.753 15.263 75.559 0 12.078-1.167 23.842-3.374 35.287-2.271 11.542-5.487 22.579-9.683 33.111 0.789 0 1.61-0.065 2.586-0.284 0.977-0.158 1.798-0.284 2.523-0.284 10.597 0 20.371 1.987 29.453 5.929 9.051 3.973 16.997 9.366 23.715 16.178 6.842 6.812 12.267 14.79 16.208 24.029 3.943 9.273 5.929 19.173 5.929 29.707 0.028 9.524-1.578 18.416-4.793 26.71z" fill="#ea9518" p-id="9467"></path></svg>