<?xml version="1.0" standalone="no"?><!DOCTYPE svg PUBLIC "-//W3C//DTD SVG 1.1//EN" "http://www.w3.org/Graphics/SVG/1.1/DTD/svg11.dtd"><svg t="1607776876499" class="icon" viewBox="0 0 1024 1024" version="1.1" xmlns="http://www.w3.org/2000/svg" p-id="5611" xmlns:xlink="http://www.w3.org/1999/xlink" width="16" height="16"><defs><style type="text/css"></style></defs><path d="M849.066667 388.266667h-226.133334C712.533333 68.266667 546.133333 85.333333 546.133333 85.333333c-59.733333 0-89.6 55.466667-89.6 123.733334-4.266667 106.666667-123.733333 217.6-179.2 238.933333V938.666667h516.266667c64 0 85.333333-59.733333 85.333333-59.733334 38.4-93.866667 81.066667-311.466667 81.066667-324.266666 12.8-157.866667-110.933333-166.4-110.933333-166.4z" fill="#FDBA31" p-id="5612"></path><path d="M149.333333 469.333333h85.333334v469.333334h-85.333334c-46.933333 0-85.333333-38.4-85.333333-85.333334v-298.666666c0-46.933333 38.4-85.333333 85.333333-85.333334z" fill="#5BC9FC" p-id="5613"></path><path d="M277.333333 853.333333h597.333334c0 46.933333-38.4 85.333333-85.333334 85.333334h-512v-85.333334z" fill="#D49D2F" p-id="5614"></path><path d="M234.666667 853.333333h-170.666667c0 46.933333 38.4 85.333333 85.333333 85.333334h85.333334v-85.333334z" fill="#53A9D1" p-id="5615"></path></svg>