<?xml version="1.0" standalone="no"?><!DOCTYPE svg PUBLIC "-//W3C//DTD SVG 1.1//EN" "http://www.w3.org/Graphics/SVG/1.1/DTD/svg11.dtd"><svg t="1607260869497" class="icon" viewBox="0 0 1024 1024" version="1.1" xmlns="http://www.w3.org/2000/svg" p-id="29616" xmlns:xlink="http://www.w3.org/1999/xlink" width="16" height="16"><defs><style type="text/css"></style></defs><path d="M460.224 544.768V173.12a51.2 51.2 0 0 1 51.2-51.2h1.6a51.2 51.2 0 0 1 51.2 51.2v382.528l114.56-114.56a51.2 51.2 0 0 1 72.448 0l1.088 1.152a51.2 51.2 0 0 1 0 72.384l-199.104 199.168a51.2 51.2 0 0 1-72.384 0l-1.152-1.152a51.456 51.456 0 0 1-6.4-7.68L280.576 512a51.2 51.2 0 0 1 0-72.384l1.088-1.152a51.2 51.2 0 0 1 72.448 0l106.24 106.24z m387.648 68.672a51.2 51.2 0 1 1 102.4 0v160a155.2 155.2 0 0 1-155.2 155.2h-560a155.2 155.2 0 0 1-155.2-155.2v-160a51.2 51.2 0 1 1 102.4 0v160c0 29.184 23.68 52.8 52.8 52.8h560c29.184 0 52.8-23.616 52.8-52.8v-160z" fill="#ffffff" p-id="29617"></path></svg>