<?xml version="1.0" standalone="no"?><!DOCTYPE svg PUBLIC "-//W3C//DTD SVG 1.1//EN" "http://www.w3.org/Graphics/SVG/1.1/DTD/svg11.dtd"><svg class="icon" width="16px" height="16.00px" viewBox="0 0 1024 1024" version="1.1" xmlns="http://www.w3.org/2000/svg"><path fill="#bfbfbf" d="M874.7552 128.725333H132.184533C82.093867 129.536 42.072533 169.557333 42.669867 218.24v716.245333c-0.597333 48.682667 39.424 88.746667 89.514666 89.514667h742.570667c50.090667-0.810667 90.112-40.832 89.514667-89.514667V218.24c0.597333-48.682667-39.424-88.704-89.514667-89.514667zM768.7712 0.853333H238.168533a159.872 159.872 0 0 0-63.829333 6.4v51.114667c20.650667 6.058667 42.325333 8.234667 63.829333 6.4h530.602667a174.634667 174.634667 0 0 0 63.829333-6.4V7.253333a159.872 159.872 0 0 0-63.829333-6.4zM666.029867 832.170667L503.469867 744.533333l-162.56 87.637334 30.890666-184.832L240.216533 516.266667l181.674667-27.52L503.469867 320.554667l81.621333 168.192 181.674667 27.52-131.626667 131.072 30.933333 184.832z"  /></svg>